<?xml version="1.0" encoding="utf-8"?>
<!-- Generator: Adobe Illustrator 16.0.0, SVG Export Plug-In . SVG Version: 6.00 Build 0)  -->
<!DOCTYPE svg PUBLIC "-//W3C//DTD SVG 1.1//EN" "http://www.w3.org/Graphics/SVG/1.1/DTD/svg11.dtd">
<svg version="1.1" id="Layer_1" xmlns="http://www.w3.org/2000/svg" xmlns:xlink="http://www.w3.org/1999/xlink" x="0px" y="0px"
	 width="24px" height="24px" viewBox="0 0 24 24" enable-background="new 0 0 24 24" xml:space="preserve">
<path fill="none" d="M0,0h24v24H0V0z"/>
<path fill="#03A9F4" d="M5,12c0-1.1-0.9-2-2-2s-2,0.9-2,2c0,1.1,0.9,2,2,2S5,13.1,5,12z"/>
<path fill="#F44336" d="M11,12c0-1.1-0.9-2-2-2s-2,0.9-2,2c0,1.1,0.9,2,2,2S11,13.1,11,12z"/>
<path fill="#4CAF50" d="M17,12c0-1.1-0.9-2-2-2s-2,0.9-2,2c0,1.1,0.9,2,2,2S17,13.1,17,12z"/>
<path fill="#FFC107" d="M23,12c0-1.1-0.9-2-2-2s-2,0.9-2,2c0,1.1,0.9,2,2,2S23,13.1,23,12z"/>
</svg>
